# xmcd CD database file
#
# Track frame offsets:
#	150
#	20100
#	41229
#
# Disc length: 763 seconds
#
# Revision: 2
# Processed by: cddbd v1.5.1PL0 Copyright (c) Steve Scherf et al.
# Submitted via: CDex 1.51
#
DISCID=2402f903
DTITLE=aino - aino
DYEAR=2004
DGENRE=New Age
TTITLE0=solen
TTITLE1=till ett minne
TTITLE2=ainos folkvisa
EXTD=YEAR: 2004
EXTT0=
EXTT1=
EXTT2=
PLAYORDER=
